<?xml version="1.0" standalone="no"?><!DOCTYPE svg PUBLIC "-//W3C//DTD SVG 1.1//EN" "http://www.w3.org/Graphics/SVG/1.1/DTD/svg11.dtd"><svg t="1711007387745" class="icon" viewBox="0 0 1024 1024" version="1.1" xmlns="http://www.w3.org/2000/svg" p-id="13257" xmlns:xlink="http://www.w3.org/1999/xlink" width="200" height="200"><path d="M512 0a256 256 0 0 0-256 256v256.602353a318.162824 318.162824 0 0 0-64 191.397647C192 880.760471 335.269647 1024 512 1024s320-143.239529 320-320c0-71.860706-23.973647-137.999059-64-191.397647V256A256 256 0 0 0 512 0z m34.123294 674.605176v124.265412c0 48.64-68.276706 48.730353-68.276706 0v-124.265412c0.030118-48.64 68.276706-48.730353 68.276706 0z m157.876706-226.183529a318.192941 318.192941 0 0 0-384 0V256a192.030118 192.030118 0 0 1 384 0v192.421647z" fill="#A8A8A8" p-id="13258"></path></svg>