<?xml version="1.0" standalone="no"?><!DOCTYPE svg PUBLIC "-//W3C//DTD SVG 1.1//EN" "http://www.w3.org/Graphics/SVG/1.1/DTD/svg11.dtd"><svg t="1711006142910" class="icon" viewBox="0 0 1024 1024" version="1.1" xmlns="http://www.w3.org/2000/svg" p-id="4294" xmlns:xlink="http://www.w3.org/1999/xlink" width="200" height="200"><path d="M54.857 372.846a18.286 18.286 0 1 1-36.571 0V134.034c0-63.963 52.297-115.748 116.663-115.748h226.304a18.286 18.286 0 1 1 0 36.571H134.949c-44.252 0-80.092 35.474-80.092 79.177v238.812z m306.396 596.297a18.286 18.286 0 1 1 0 36.571H134.949c-64.366 0-116.663-51.529-116.663-115.2V662.747a18.286 18.286 0 1 1 36.571 0v227.767c0 43.374 35.804 78.629 80.092 78.629h226.304zM651.154 54.857a18.286 18.286 0 0 1 0-36.571h240.201c63.232 0 114.36 51.895 114.36 115.748v238.812a18.286 18.286 0 1 1-36.572 0V134.034c0-43.776-34.89-79.177-77.788-79.177h-240.2z m317.989 607.89a18.286 18.286 0 1 1 36.571 0v227.767c0 63.598-51.2 115.2-114.359 115.2h-240.2a18.286 18.286 0 0 1 0-36.571h240.2a78.226 78.226 0 0 0 77.788-78.629V662.747zM338.066 314.88q23.187 0 23.187 23.186v69.596q0 23.186-23.187 23.186-23.186 0-23.186-23.186v-69.596q0-23.186 23.186-23.186zM697.527 314.88q23.186 0 23.186 23.186v69.596q0 23.186-23.186 23.186t-23.186-23.186v-69.596q0-23.186 23.186-23.186z m-185.49 60.38a18.286 18.286 0 0 1 36.242-4.828c20.663 154.331-9.874 231.35-97.536 209.518a18.286 18.286 0 0 1 8.814-35.475c50.724 12.618 70.217-36.608 52.48-169.216z m-154.77 299.337a18.286 18.286 0 1 1 31.195-19.09c20.15 32.987 71.095 56.246 129.39 56.246 59.501 0 111.177-24.21 130.486-58.075a18.286 18.286 0 1 1 31.817 18.14c-26.55 46.445-90.697 76.507-162.304 76.507-70.107 0-133.12-28.782-160.585-73.728z" fill="#333333" p-id="4295"></path></svg>