<?xml version="1.0" standalone="no"?><!DOCTYPE svg PUBLIC "-//W3C//DTD SVG 1.1//EN" "http://www.w3.org/Graphics/SVG/1.1/DTD/svg11.dtd"><svg t="1711007316964" class="icon" viewBox="0 0 1024 1024" version="1.1" xmlns="http://www.w3.org/2000/svg" p-id="10152" xmlns:xlink="http://www.w3.org/1999/xlink" width="200" height="200"><path d="M920 737.7h-78.36V488.22c0-183-114.38-335-265.88-369v-1.14a64 64 0 1 0-128 0v1.14c-151.5 34-265.88 186-265.88 369V737.7H104a40 40 0 0 0 0 80h248.19a160 160 0 0 0 319.62 0H920a40 40 0 0 0 0-80zM512 889.92a80 80 0 0 1-79.62-72.22h159.24A80 80 0 0 1 512 889.92zM761.64 737.7H262V488.13C262 327.31 373.81 197 511.79 197s249.85 130.31 249.85 291.13z" fill="#999999" p-id="10153"></path></svg>